<svg viewBox="0 0 1024 1024" width="28" height="28" xmlns="http://www.w3.org/2000/svg"><path d="M234.666667 463.445333a12.885333 12.885333 0 0 1-9.045334-21.930666l116.138667-116.053334a12.8 12.8 0 0 1 18.090667 18.090667L243.712 459.690667a12.885333 12.885333 0 0 1-9.045333 3.754666zM573.354667 802.133333a13.056 13.056 0 0 1-9.045334-3.754666 12.885333 12.885333 0 0 1 0-18.090667l116.138667-116.138667A12.8 12.8 0 0 1 698.538667 682.666667l-116.053334 115.712a13.056 13.056 0 0 1-9.130666 3.754666zM529.834667 665.088A97.877333 97.877333 0 0 1 460.8 636.416L387.584 563.2a98.304 98.304 0 0 1 0-138.752l159.488-159.146667a98.048 98.048 0 0 1 61.269333-28.416L788.309333 221.866667a12.373333 12.373333 0 0 1 10.069334 3.669333 12.629333 12.629333 0 0 1 3.754666 10.154667l-15.018666 179.968a98.048 98.048 0 0 1-28.416 61.269333L599.210667 636.416a97.706667 97.706667 0 0 1-69.376 28.672z m245.504-416.426667l-164.864 13.738667a72.448 72.448 0 0 0-45.312 20.992L405.674667 442.88a72.704 72.704 0 0 0 0 102.4l72.874666 72.874667a72.704 72.704 0 0 0 102.4 0l159.658667-159.317334a72.448 72.448 0 0 0 20.992-45.312z" fill="#333"></path><path d="M292.693333 637.610667a13.056 13.056 0 0 1-9.045333-3.754667 12.885333 12.885333 0 0 1 0-18.090667l58.112-58.112a12.8 12.8 0 1 1 18.090667 18.176l-58.026667 58.026667a13.056 13.056 0 0 1-9.130667 3.754667zM287.914667 748.885333a12.373333 12.373333 0 0 1-9.045334-3.754666 12.714667 12.714667 0 0 1 0-18.090667l116.138667-116.138667a12.8 12.8 0 0 1 18.090667 18.090667L296.96 745.130667a12.544 12.544 0 0 1-9.045333 3.754666zM399.189333 744.106667a12.885333 12.885333 0 0 1-9.045333-21.930667l58.026667-58.026667A12.8 12.8 0 0 1 466.346667 682.666667l-58.112 58.112a12.885333 12.885333 0 0 1-9.045334 3.328z" fill="#0098F0"></path><path d="M700.586667 430.08A12.885333 12.885333 0 0 1 691.2 426.666667L597.333333 332.8a12.885333 12.885333 0 0 1 0-18.090667 12.714667 12.714667 0 0 1 18.090667 0l93.866667 93.866667a12.8 12.8 0 0 1-8.704 21.504z" fill="#333"></path></svg>
